<svg width="233" height="227" viewBox="0 0 233 227" fill="none" xmlns="http://www.w3.org/2000/svg">
<g clip-path="url(#clip0_2:554)">
<g filter="url(#filter0_d_2:554)">
<rect y="0.877197" width="232.404" height="225.253" rx="8.93861" fill="#1D2067"/>
</g>
<path d="M32.5937 31.553C33.5853 31.553 34.4863 31.7771 35.2968 32.2252C36.1167 32.6733 36.7603 33.2883 37.2275 34.0701C37.6947 34.852 37.9283 35.7196 37.9283 36.6731C37.9283 37.6265 37.6947 38.4989 37.2275 39.2903C36.7603 40.0721 36.1167 40.6919 35.2968 41.1495C34.4863 41.6072 33.5853 41.836 32.5937 41.836C31.6022 41.836 30.6964 41.6072 29.8764 41.1495C29.066 40.6919 28.4272 40.0721 27.96 39.2903C27.4928 38.4989 27.2592 37.6265 27.2592 36.6731C27.2592 35.7196 27.4928 34.852 27.96 34.0701C28.4272 33.2883 29.066 32.6733 29.8764 32.2252C30.6964 31.7771 31.6022 31.553 32.5937 31.553ZM32.6223 33.2692C32.0121 33.2692 31.4448 33.4218 30.9204 33.7269C30.396 34.0225 29.9813 34.4325 29.6762 34.9569C29.3711 35.4717 29.2185 36.0438 29.2185 36.6731C29.2185 37.3023 29.3711 37.8792 29.6762 38.4036C29.9908 38.928 30.4056 39.3427 30.9204 39.6478C31.4448 39.9529 32.0121 40.1055 32.6223 40.1055C33.223 40.1055 33.7808 39.9529 34.2957 39.6478C34.8105 39.3427 35.2157 38.928 35.5113 38.4036C35.8164 37.8792 35.969 37.3023 35.969 36.6731C35.969 36.0438 35.8164 35.4717 35.5113 34.9569C35.2157 34.4325 34.8105 34.0225 34.2957 33.7269C33.7808 33.4218 33.223 33.2692 32.6223 33.2692ZM38.296 34.0558L40.2411 34.0415L42.2433 39.8624L44.2026 34.0415H46.0762L43.1586 41.693H41.2422L38.296 34.0558ZM50.0743 33.9843C51.2947 33.9843 52.21 34.3323 52.8202 35.0284C53.44 35.7244 53.7499 36.7017 53.7499 37.9602C53.7499 38.2081 53.7451 38.3941 53.7356 38.518H48.0864C48.2103 39.0615 48.463 39.4905 48.8444 39.8052C49.2353 40.1103 49.712 40.2628 50.2745 40.2628C50.6654 40.2628 51.0373 40.1913 51.3901 40.0483C51.7524 39.8957 52.067 39.6812 52.334 39.4047L53.3351 40.4487C52.9537 40.8683 52.4865 41.1924 51.9335 41.4213C51.3901 41.6501 50.7846 41.7645 50.1172 41.7645C49.3354 41.7645 48.6441 41.6024 48.0435 41.2782C47.4523 40.9541 46.9947 40.5012 46.6705 39.9196C46.3463 39.3284 46.1842 38.6515 46.1842 37.8887C46.1842 37.126 46.3463 36.449 46.6705 35.8579C47.0042 35.2667 47.4666 34.8091 48.0578 34.4849C48.6489 34.1512 49.3211 33.9843 50.0743 33.9843ZM52.048 37.2737C52.0289 36.7112 51.843 36.2631 51.4902 35.9294C51.1374 35.5957 50.6702 35.4288 50.0886 35.4288C49.5451 35.4288 49.0875 35.5957 48.7156 35.9294C48.3533 36.2536 48.1293 36.7017 48.0435 37.2737H52.048ZM57.208 35.5146C57.4654 35.0188 57.8134 34.6422 58.252 34.3848C58.7001 34.1178 59.2198 33.9796 59.8109 33.97V35.7721C59.0195 35.7244 58.3855 35.9103 57.9088 36.3298C57.4416 36.7398 57.208 37.2976 57.208 38.0031V41.693H55.3488V34.0415H57.208V35.5146ZM60.3073 34.0558L62.2524 34.0415L64.2546 39.8624L66.214 34.0415H68.0875L65.1699 41.693H63.2535L60.3073 34.0558ZM69.1617 34.0415H71.0209V41.693H69.1617V34.0415ZM70.077 30.7521C70.3821 30.7521 70.6348 30.857 70.835 31.0668C71.0352 31.2765 71.1353 31.5435 71.1353 31.8677C71.1353 32.1823 71.0352 32.4445 70.835 32.6543C70.6348 32.864 70.3821 32.9689 70.077 32.9689C69.7719 32.9689 69.5192 32.864 69.319 32.6543C69.1188 32.4445 69.0187 32.1823 69.0187 31.8677C69.0187 31.5435 69.1188 31.2765 69.319 31.0668C69.5192 30.857 69.7719 30.7521 70.077 30.7521ZM76.513 33.9843C77.7335 33.9843 78.6488 34.3323 79.259 35.0284C79.8787 35.7244 80.1886 36.7017 80.1886 37.9602C80.1886 38.2081 80.1838 38.3941 80.1743 38.518H74.5251C74.649 39.0615 74.9017 39.4905 75.2831 39.8052C75.674 40.1103 76.1507 40.2628 76.7133 40.2628C77.1042 40.2628 77.476 40.1913 77.8288 40.0483C78.1911 39.8957 78.5057 39.6812 78.7727 39.4047L79.7738 40.4487C79.3925 40.8683 78.9253 41.1924 78.3723 41.4213C77.8288 41.6501 77.2234 41.7645 76.5559 41.7645C75.7741 41.7645 75.0829 41.6024 74.4822 41.2782C73.891 40.9541 73.4334 40.5012 73.1092 39.9196C72.785 39.3284 72.623 38.6515 72.623 37.8887C72.623 37.126 72.785 36.449 73.1092 35.8579C73.4429 35.2667 73.9053 34.8091 74.4965 34.4849C75.0876 34.1512 75.7598 33.9843 76.513 33.9843ZM78.4867 37.2737C78.4676 36.7112 78.2817 36.2631 77.9289 35.9294C77.5761 35.5957 77.1089 35.4288 76.5273 35.4288C75.9839 35.4288 75.5262 35.5957 75.1544 35.9294C74.7921 36.2536 74.568 36.7017 74.4822 37.2737H78.4867ZM80.3494 34.0558L82.2658 34.0415L84.1393 39.8195L85.9557 34.0415H87.8292L89.6741 39.8195L91.5048 34.0415H93.3783L90.6037 41.693H88.7016L86.871 36.3012L85.0547 41.693H83.1525L80.3494 34.0558Z" fill="#8476AA"/>
<path d="M151.42 41.693V35.312H152.162V41.0209H154.977V41.693H151.42ZM158.897 41.693L158.753 41.0121H158.718C158.479 41.3118 158.241 41.5155 158.002 41.6232C157.766 41.7279 157.471 41.7803 157.116 41.7803C156.642 41.7803 156.269 41.6581 155.999 41.4137C155.731 41.1692 155.597 40.8215 155.597 40.3705C155.597 39.4045 156.37 38.8982 157.915 38.8517L158.727 38.8255V38.5287C158.727 38.1533 158.645 37.8769 158.482 37.6994C158.322 37.519 158.065 37.4288 157.71 37.4288C157.311 37.4288 156.86 37.551 156.357 37.7954L156.134 37.2411C156.37 37.1131 156.627 37.0127 156.907 36.94C157.189 36.8673 157.471 36.8309 157.753 36.8309C158.324 36.8309 158.746 36.9575 159.019 37.2106C159.295 37.4637 159.434 37.8696 159.434 38.4283V41.693H158.897ZM157.26 41.1823C157.711 41.1823 158.065 41.0587 158.321 40.8114C158.58 40.564 158.709 40.2178 158.709 39.7726V39.3405L157.985 39.3711C157.409 39.3914 156.992 39.4816 156.736 39.6417C156.483 39.7988 156.357 40.0446 156.357 40.3793C156.357 40.6411 156.435 40.8405 156.592 40.9772C156.752 41.114 156.975 41.1823 157.26 41.1823ZM164.016 40.388C164.016 40.8332 163.851 41.1765 163.519 41.418C163.187 41.6595 162.722 41.7803 162.122 41.7803C161.488 41.7803 160.993 41.6799 160.638 41.4791V40.807C160.868 40.9234 161.114 41.015 161.376 41.082C161.641 41.1489 161.895 41.1823 162.14 41.1823C162.518 41.1823 162.809 41.1227 163.013 41.0034C163.216 40.8812 163.318 40.6964 163.318 40.4491C163.318 40.2629 163.237 40.1043 163.074 39.9734C162.914 39.8395 162.599 39.6824 162.131 39.502C161.686 39.3361 161.369 39.1921 161.18 39.0699C160.993 38.9448 160.854 38.8037 160.761 38.6465C160.67 38.4894 160.625 38.3017 160.625 38.0835C160.625 37.6936 160.784 37.3866 161.101 37.1626C161.418 36.9356 161.853 36.8222 162.406 36.8222C162.921 36.8222 163.424 36.9269 163.916 37.1364L163.659 37.7256C163.178 37.5278 162.743 37.4288 162.354 37.4288C162.01 37.4288 161.751 37.4827 161.577 37.5903C161.402 37.698 161.315 37.8464 161.315 38.0355C161.315 38.1635 161.347 38.2726 161.411 38.3628C161.478 38.453 161.584 38.5389 161.729 38.6203C161.875 38.7018 162.154 38.8197 162.567 38.9739C163.135 39.1805 163.517 39.3885 163.715 39.598C163.916 39.8075 164.016 40.0708 164.016 40.388ZM166.744 41.1823C166.872 41.1823 166.996 41.1736 167.115 41.1562C167.235 41.1358 167.329 41.1154 167.399 41.095V41.6493C167.32 41.6872 167.204 41.7177 167.05 41.741C166.899 41.7672 166.762 41.7803 166.64 41.7803C165.714 41.7803 165.252 41.2929 165.252 40.3182V37.4725H164.566V37.1233L165.252 36.8222L165.557 35.8008H165.976V36.9094H167.364V37.4725H165.976V40.2876C165.976 40.5757 166.045 40.7968 166.181 40.951C166.318 41.1052 166.506 41.1823 166.744 41.1823ZM172.344 37.7954C173.016 37.7954 173.544 37.9628 173.928 38.2974C174.315 38.6291 174.509 39.0844 174.509 39.6635C174.509 40.324 174.298 40.8419 173.876 41.2173C173.457 41.5926 172.878 41.7803 172.139 41.7803C171.42 41.7803 170.872 41.6654 170.493 41.4355V40.7372C170.697 40.8681 170.95 40.9714 171.253 41.047C171.556 41.1198 171.854 41.1562 172.148 41.1562C172.66 41.1562 173.057 41.0354 173.339 40.7939C173.624 40.5524 173.767 40.2032 173.767 39.7464C173.767 38.856 173.221 38.4108 172.13 38.4108C171.854 38.4108 171.484 38.453 171.022 38.5374L170.646 38.2974L170.886 35.312H174.059V35.9798H171.506L171.345 37.8958C171.679 37.8289 172.012 37.7954 172.344 37.7954ZM184.216 41.693V38.5811C184.216 38.1999 184.134 37.9147 183.971 37.7256C183.808 37.5336 183.555 37.4376 183.212 37.4376C182.761 37.4376 182.428 37.567 182.212 37.826C181.997 38.085 181.889 38.4836 181.889 39.0219V41.693H181.165V38.5811C181.165 38.1999 181.083 37.9147 180.92 37.7256C180.757 37.5336 180.503 37.4376 180.157 37.4376C179.703 37.4376 179.37 37.5743 179.157 37.8478C178.948 38.1184 178.843 38.5636 178.843 39.1834V41.693H178.118V36.9094H178.708L178.825 37.5641H178.86C178.997 37.3313 179.189 37.1495 179.436 37.0186C179.687 36.8876 179.966 36.8222 180.274 36.8222C181.022 36.8222 181.511 37.0928 181.741 37.634H181.776C181.918 37.3837 182.125 37.1859 182.396 37.0404C182.666 36.8949 182.975 36.8222 183.321 36.8222C183.862 36.8222 184.267 36.9618 184.534 37.2411C184.805 37.5176 184.94 37.9613 184.94 38.5723V41.693H184.216ZM190.566 39.2969C190.566 40.0767 190.37 40.6862 189.977 41.1256C189.584 41.5621 189.041 41.7803 188.349 41.7803C187.921 41.7803 187.541 41.6799 187.21 41.4791C186.878 41.2784 186.622 40.9903 186.442 40.6149C186.261 40.2396 186.171 39.8002 186.171 39.2969C186.171 38.5171 186.366 37.9104 186.756 37.4768C187.146 37.0404 187.687 36.8222 188.379 36.8222C189.049 36.8222 189.58 37.0447 189.972 37.4899C190.368 37.9351 190.566 38.5374 190.566 39.2969ZM186.922 39.2969C186.922 39.9079 187.044 40.3734 187.288 40.6935C187.533 41.0136 187.892 41.1736 188.366 41.1736C188.841 41.1736 189.2 41.015 189.444 40.6979C189.692 40.3778 189.815 39.9108 189.815 39.2969C189.815 38.6887 189.692 38.2275 189.444 37.9133C189.2 37.5961 188.838 37.4376 188.358 37.4376C187.883 37.4376 187.525 37.5932 187.284 37.9046C187.042 38.2159 186.922 38.68 186.922 39.2969ZM195.114 41.693V38.5985C195.114 38.2086 195.025 37.9177 194.848 37.7256C194.67 37.5336 194.392 37.4376 194.014 37.4376C193.514 37.4376 193.147 37.5729 192.914 37.8435C192.681 38.1141 192.565 38.5607 192.565 39.1834V41.693H191.841V36.9094H192.43L192.548 37.5641H192.582C192.731 37.3284 192.939 37.1466 193.207 37.0186C193.474 36.8876 193.773 36.8222 194.101 36.8222C194.677 36.8222 195.111 36.9618 195.402 37.2411C195.693 37.5176 195.838 37.9613 195.838 38.5723V41.693H195.114ZM198.876 41.1823C199.004 41.1823 199.128 41.1736 199.247 41.1562C199.366 41.1358 199.461 41.1154 199.531 41.095V41.6493C199.452 41.6872 199.336 41.7177 199.182 41.741C199.03 41.7672 198.894 41.7803 198.771 41.7803C197.846 41.7803 197.383 41.2929 197.383 40.3182V37.4725H196.698V37.1233L197.383 36.8222L197.689 35.8008H198.108V36.9094H199.496V37.4725H198.108V40.2876C198.108 40.5757 198.176 40.7968 198.313 40.951C198.45 41.1052 198.638 41.1823 198.876 41.1823ZM203.764 41.693V38.5985C203.764 38.2086 203.676 37.9177 203.498 37.7256C203.321 37.5336 203.043 37.4376 202.665 37.4376C202.161 37.4376 201.793 37.5743 201.56 37.8478C201.33 38.1213 201.216 38.5694 201.216 39.1921V41.693H200.491V34.9017H201.216V36.9575C201.216 37.2048 201.204 37.4099 201.181 37.5729H201.224C201.367 37.343 201.569 37.1626 201.831 37.0316C202.096 36.8978 202.397 36.8309 202.734 36.8309C203.319 36.8309 203.757 36.9705 204.048 37.2499C204.342 37.5263 204.489 37.9671 204.489 38.5723V41.693H203.764Z" fill="#8476AA"/>
<g opacity="0.2" clip-path="url(#clip1_2:554)">
<path d="M121.386 194.012L119.221 188.356H119.186C119.227 188.804 119.247 189.337 119.247 189.953V194.012H118.562V187.631H119.68L121.7 192.895H121.735L123.774 187.631H124.882V194.012H124.14V189.901C124.14 189.43 124.161 188.918 124.201 188.365H124.166L121.984 194.012H121.386ZM129.469 194.012L129.325 193.332H129.29C129.052 193.631 128.813 193.835 128.575 193.943C128.339 194.047 128.044 194.1 127.689 194.1C127.214 194.1 126.842 193.978 126.571 193.733C126.304 193.489 126.17 193.141 126.17 192.69C126.17 191.724 126.942 191.218 128.487 191.171L129.299 191.145V190.848C129.299 190.473 129.218 190.196 129.055 190.019C128.895 189.838 128.637 189.748 128.282 189.748C127.883 189.748 127.432 189.87 126.929 190.115L126.707 189.561C126.942 189.433 127.2 189.332 127.479 189.259C127.761 189.187 128.044 189.15 128.326 189.15C128.896 189.15 129.318 189.277 129.591 189.53C129.868 189.783 130.006 190.189 130.006 190.748V194.012H129.469ZM127.833 193.502C128.284 193.502 128.637 193.378 128.893 193.131C129.152 192.883 129.282 192.537 129.282 192.092V191.66L128.557 191.691C127.981 191.711 127.565 191.801 127.309 191.961C127.056 192.118 126.929 192.364 126.929 192.699C126.929 192.961 127.008 193.16 127.165 193.297C127.325 193.433 127.547 193.502 127.833 193.502ZM133.685 189.142C133.898 189.142 134.088 189.159 134.257 189.194L134.157 189.866C133.959 189.822 133.784 189.801 133.633 189.801C133.246 189.801 132.914 189.958 132.638 190.272C132.364 190.586 132.228 190.978 132.228 191.446V194.012H131.503V189.229H132.101L132.184 190.115H132.219C132.396 189.804 132.61 189.564 132.861 189.395C133.111 189.226 133.386 189.142 133.685 189.142Z" fill="white"/>
<path d="M185.316 194.012L183.152 188.356H183.117C183.157 188.804 183.178 189.337 183.178 189.953V194.012H182.492V187.631H183.61L185.631 192.895H185.666L187.704 187.631H188.812V194.012H188.07V189.901C188.07 189.43 188.091 188.918 188.132 188.365H188.097L185.914 194.012H185.316ZM193.4 194.012L193.255 193.332H193.221C192.982 193.631 192.743 193.835 192.505 193.943C192.269 194.047 191.974 194.1 191.619 194.1C191.145 194.1 190.772 193.978 190.501 193.733C190.234 193.489 190.1 193.141 190.1 192.69C190.1 191.724 190.872 191.218 192.417 191.171L193.229 191.145V190.848C193.229 190.473 193.148 190.196 192.985 190.019C192.825 189.838 192.567 189.748 192.212 189.748C191.814 189.748 191.363 189.87 190.859 190.115L190.637 189.561C190.872 189.433 191.13 189.332 191.409 189.259C191.692 189.187 191.974 189.15 192.256 189.15C192.826 189.15 193.248 189.277 193.522 189.53C193.798 189.783 193.936 190.189 193.936 190.748V194.012H193.4ZM191.763 193.502C192.214 193.502 192.567 193.378 192.823 193.131C193.082 192.883 193.212 192.537 193.212 192.092V191.66L192.487 191.691C191.911 191.711 191.495 191.801 191.239 191.961C190.986 192.118 190.859 192.364 190.859 192.699C190.859 192.961 190.938 193.16 191.095 193.297C191.255 193.433 191.478 193.502 191.763 193.502ZM194.674 189.229H195.451L196.498 191.957C196.728 192.579 196.871 193.029 196.926 193.305H196.961C196.999 193.157 197.077 192.904 197.197 192.546C197.319 192.185 197.715 191.079 198.384 189.229H199.161L197.105 194.676C196.901 195.214 196.663 195.595 196.389 195.819C196.119 196.046 195.785 196.16 195.39 196.16C195.169 196.16 194.95 196.135 194.735 196.086V195.505C194.895 195.54 195.074 195.558 195.272 195.558C195.769 195.558 196.124 195.278 196.337 194.72L196.603 194.039L194.674 189.229Z" fill="white"/>
<path d="M155.708 194.012L154.914 191.983H152.356L151.571 194.012H150.82L153.343 187.605H153.967L156.476 194.012H155.708ZM154.682 191.315L153.94 189.338C153.844 189.088 153.746 188.781 153.644 188.417C153.58 188.696 153.488 189.003 153.369 189.338L152.618 191.315H154.682ZM159.47 194.1C159.159 194.1 158.874 194.043 158.615 193.93C158.359 193.813 158.144 193.636 157.969 193.397H157.917C157.952 193.676 157.969 193.941 157.969 194.191V196.16H157.244V189.229H157.834L157.934 189.884H157.969C158.155 189.622 158.372 189.433 158.619 189.316C158.867 189.2 159.15 189.142 159.47 189.142C160.105 189.142 160.594 189.358 160.937 189.792C161.283 190.225 161.456 190.834 161.456 191.616C161.456 192.402 161.28 193.013 160.928 193.449C160.579 193.883 160.093 194.1 159.47 194.1ZM159.366 189.757C158.877 189.757 158.523 189.892 158.305 190.163C158.087 190.434 157.975 190.864 157.969 191.455V191.616C157.969 192.288 158.081 192.77 158.305 193.061C158.529 193.349 158.888 193.493 159.383 193.493C159.796 193.493 160.119 193.326 160.352 192.991C160.588 192.657 160.706 192.195 160.706 191.608C160.706 191.011 160.588 190.554 160.352 190.237C160.119 189.917 159.79 189.757 159.366 189.757ZM164.909 189.142C165.121 189.142 165.312 189.159 165.48 189.194L165.38 189.866C165.182 189.822 165.008 189.801 164.856 189.801C164.469 189.801 164.138 189.958 163.861 190.272C163.588 190.586 163.451 190.978 163.451 191.446V194.012H162.726V189.229H163.324L163.407 190.115H163.442C163.62 189.804 163.833 189.564 164.084 189.395C164.334 189.226 164.609 189.142 164.909 189.142Z" fill="white"/>
<path d="M87.9152 194.012H87.1733V187.631H90.7304V188.291H87.9152V190.626H90.5601V191.285H87.9152V194.012ZM93.7026 194.1C92.9956 194.1 92.4369 193.884 92.0266 193.454C91.6193 193.023 91.4156 192.425 91.4156 191.66C91.4156 190.889 91.6047 190.276 91.983 189.822C92.3642 189.369 92.8748 189.142 93.515 189.142C94.1144 189.142 94.5886 189.339 94.9378 189.735C95.287 190.128 95.4615 190.647 95.4615 191.293V191.752H92.1663C92.1809 192.313 92.322 192.739 92.5897 193.03C92.8603 193.321 93.24 193.467 93.7288 193.467C94.2438 193.467 94.753 193.359 95.2564 193.144V193.79C95.0004 193.9 94.7574 193.979 94.5275 194.026C94.3006 194.075 94.0256 194.1 93.7026 194.1ZM93.5062 189.748C93.1221 189.748 92.8152 189.873 92.5853 190.124C92.3583 190.374 92.2245 190.72 92.1838 191.162H94.6847C94.6847 190.706 94.5828 190.356 94.3791 190.115C94.1755 189.87 93.8845 189.748 93.5062 189.748ZM98.927 189.15C99.5555 189.15 100.043 189.366 100.389 189.796C100.738 190.224 100.913 190.831 100.913 191.616C100.913 192.402 100.737 193.013 100.385 193.449C100.036 193.883 99.5497 194.1 98.927 194.1C98.6157 194.1 98.3305 194.043 98.0715 193.93C97.8155 193.813 97.6002 193.636 97.4256 193.397H97.3732L97.2205 194.012H96.7011V187.221H97.4256V188.871C97.4256 189.241 97.414 189.572 97.3907 189.866H97.4256C97.7631 189.389 98.2636 189.15 98.927 189.15ZM98.8222 189.757C98.3276 189.757 97.9712 189.9 97.7529 190.185C97.5347 190.467 97.4256 190.944 97.4256 191.616C97.4256 192.288 97.5376 192.77 97.7617 193.061C97.9857 193.349 98.3451 193.493 98.8397 193.493C99.2849 193.493 99.6166 193.332 99.8348 193.009C100.053 192.683 100.162 192.216 100.162 191.608C100.162 190.985 100.053 190.521 99.8348 190.215C99.6166 189.91 99.2791 189.757 98.8222 189.757Z" fill="white"/>
<path d="M55.195 195.693C54.9215 195.693 54.7062 195.654 54.5491 195.575V194.942C54.7557 195 54.971 195.029 55.195 195.029C55.4831 195.029 55.7013 194.942 55.8497 194.768C56.001 194.593 56.0767 194.341 56.0767 194.012V187.631H56.8187V193.951C56.8187 194.504 56.679 194.932 56.3997 195.235C56.1203 195.54 55.7188 195.693 55.195 195.693ZM61.3491 194.012L61.205 193.332H61.1701C60.9315 193.631 60.6929 193.835 60.4543 193.943C60.2186 194.047 59.9233 194.1 59.5683 194.1C59.094 194.1 58.7216 193.978 58.451 193.733C58.1833 193.489 58.0495 193.141 58.0495 192.69C58.0495 191.724 58.822 191.218 60.367 191.171L61.1788 191.145V190.848C61.1788 190.473 61.0974 190.196 60.9344 190.019C60.7744 189.838 60.5169 189.748 60.1619 189.748C59.7633 189.748 59.3123 189.87 58.8089 190.115L58.5863 189.561C58.822 189.433 59.0795 189.332 59.3588 189.259C59.6411 189.187 59.9233 189.15 60.2055 189.15C60.7758 189.15 61.1978 189.277 61.4713 189.53C61.7477 189.783 61.8859 190.189 61.8859 190.748V194.012H61.3491ZM59.7124 193.502C60.1634 193.502 60.5169 193.378 60.7729 193.131C61.0319 192.883 61.1614 192.537 61.1614 192.092V191.66L60.4369 191.691C59.8607 191.711 59.4447 191.801 59.1886 191.961C58.9355 192.118 58.8089 192.364 58.8089 192.699C58.8089 192.961 58.8875 193.16 59.0446 193.297C59.2046 193.433 59.4272 193.502 59.7124 193.502ZM66.6564 194.012V190.918C66.6564 190.528 66.5676 190.237 66.3901 190.045C66.2126 189.853 65.9348 189.757 65.5565 189.757C65.056 189.757 64.6894 189.892 64.4566 190.163C64.2238 190.434 64.1075 190.88 64.1075 191.503V194.012H63.3829V189.229H63.9722L64.09 189.884H64.1249C64.2733 189.648 64.4814 189.466 64.749 189.338C65.0167 189.207 65.315 189.142 65.6438 189.142C66.2199 189.142 66.6534 189.281 66.9444 189.561C67.2354 189.837 67.3809 190.281 67.3809 190.892V194.012H66.6564Z" fill="white"/>
</g>
<g opacity="0.1">
<path d="M46.4808 114.844H207.376" stroke="#EDE9F2" stroke-width="0.44693"/>
<path d="M46.4808 70.1514H207.376" stroke="#EDE9F2" stroke-width="0.44693"/>
<path d="M46.4808 92.4978H207.376" stroke="#EDE9F2" stroke-width="0.44693"/>
<path d="M46.4808 137.191H207.376" stroke="#EDE9F2" stroke-width="0.44693"/>
<path d="M46.4808 159.538H207.376" stroke="#EDE9F2" stroke-width="0.44693"/>
<path d="M46.4808 181.884H207.376" stroke="#EDE9F2" stroke-width="0.44693"/>
</g>
<g opacity="0.2" clip-path="url(#clip2_2:554)">
<path d="M33.9545 85.6397C34.5364 85.6397 34.9976 85.775 35.3381 86.0456C35.6785 86.3162 35.8487 86.6901 35.8487 87.1673C35.8487 87.4815 35.7512 87.7681 35.5563 88.0271C35.3613 88.286 35.05 88.5217 34.6223 88.7341C35.1402 88.9815 35.5083 89.2419 35.7265 89.5154C35.9447 89.786 36.0539 90.1002 36.0539 90.4581C36.0539 90.9877 35.8691 91.4111 35.4996 91.7282C35.13 92.0425 34.6237 92.1996 33.9807 92.1996C33.2998 92.1996 32.7761 92.0512 32.4094 91.7544C32.0428 91.4547 31.8595 91.0313 31.8595 90.4843C31.8595 89.754 32.3047 89.1851 33.1951 88.7778C32.7935 88.5508 32.5055 88.3064 32.3309 88.0445C32.1563 87.7798 32.069 87.4844 32.069 87.1585C32.069 86.6959 32.2392 86.3278 32.5797 86.0543C32.923 85.7779 33.3813 85.6397 33.9545 85.6397ZM32.5753 90.5018C32.5753 90.8509 32.6961 91.123 32.9376 91.318C33.182 91.5129 33.5239 91.6104 33.9632 91.6104C34.3968 91.6104 34.7343 91.5085 34.9758 91.3049C35.2173 91.1012 35.3381 90.8219 35.3381 90.4669C35.3381 90.1846 35.2246 89.9344 34.9976 89.7162C34.7707 89.495 34.375 89.2812 33.8105 89.0746C33.3769 89.2608 33.0627 89.4674 32.8677 89.6943C32.6728 89.9184 32.5753 90.1875 32.5753 90.5018ZM33.9458 86.2289C33.5821 86.2289 33.2969 86.3162 33.0903 86.4908C32.8837 86.6653 32.7804 86.8981 32.7804 87.1891C32.7804 87.4568 32.8663 87.6866 33.0379 87.8787C33.2096 88.0707 33.5268 88.2628 33.9894 88.4548C34.4055 88.2802 34.6994 88.0925 34.8711 87.8918C35.0456 87.691 35.1329 87.4568 35.1329 87.1891C35.1329 86.8952 35.0267 86.6624 34.8143 86.4908C34.6048 86.3162 34.3153 86.2289 33.9458 86.2289ZM42.0071 92.1123H41.1342L38.8079 89.0178L38.1401 89.6114V92.1123H37.3981V85.7313H38.1401V88.8956L41.0338 85.7313H41.9111L39.3447 88.5028L42.0071 92.1123Z" fill="white"/>
<path d="M36.0364 159.152H31.8421V158.528L33.5224 156.839C34.0345 156.321 34.372 155.951 34.535 155.73C34.6979 155.509 34.8201 155.294 34.9016 155.084C34.9831 154.875 35.0238 154.649 35.0238 154.408C35.0238 154.067 34.9205 153.798 34.7139 153.6C34.5073 153.399 34.2207 153.299 33.8541 153.299C33.5893 153.299 33.3376 153.343 33.099 153.43C32.8634 153.517 32.6 153.676 32.3091 153.906L31.925 153.413C32.5127 152.924 33.1529 152.679 33.8454 152.679C34.4448 152.679 34.9147 152.834 35.2551 153.142C35.5956 153.448 35.7658 153.859 35.7658 154.377C35.7658 154.782 35.6523 155.182 35.4254 155.577C35.1984 155.973 34.7736 156.474 34.1509 157.079L32.7542 158.445V158.48H36.0364V159.152ZM42.0071 159.152H41.1342L38.8079 156.058L38.1401 156.651V159.152H37.3981V152.771H38.1401V155.935L41.0338 152.771H41.9111L39.3447 155.542L42.0071 159.152Z" fill="white"/>
<path d="M41.5619 178.299C41.5619 179.402 41.3873 180.225 41.0382 180.77C40.6919 181.314 40.1609 181.586 39.4451 181.586C38.7584 181.586 38.2361 181.308 37.8782 180.752C37.5203 180.193 37.3414 179.376 37.3414 178.299C37.3414 177.188 37.5145 176.363 37.8608 175.824C38.207 175.286 38.7351 175.017 39.4451 175.017C40.1376 175.017 40.6628 175.298 41.0207 175.859C41.3815 176.421 41.5619 177.234 41.5619 178.299ZM38.0746 178.299C38.0746 179.227 38.1838 179.904 38.402 180.329C38.6202 180.751 38.9679 180.962 39.4451 180.962C39.9281 180.962 40.2773 180.748 40.4926 180.32C40.7108 179.889 40.8199 179.216 40.8199 178.299C40.8199 177.383 40.7108 176.712 40.4926 176.287C40.2773 175.859 39.9281 175.646 39.4451 175.646C38.9679 175.646 38.6202 175.856 38.402 176.278C38.1838 176.697 38.0746 177.371 38.0746 178.299Z" fill="white"/>
<path d="M31.9163 111.731C31.9163 110.477 32.1592 109.54 32.6451 108.92C33.134 108.298 33.8556 107.986 34.81 107.986C35.1388 107.986 35.3977 108.014 35.5868 108.069V108.693C35.3628 108.621 35.1067 108.584 34.8187 108.584C34.1349 108.584 33.6126 108.798 33.2518 109.226C32.891 109.651 32.6931 110.32 32.6582 111.233H32.7106C33.0307 110.733 33.537 110.483 34.2295 110.483C34.8027 110.483 35.2537 110.656 35.5825 111.002C35.9142 111.348 36.08 111.818 36.08 112.412C36.08 113.075 35.8982 113.598 35.5345 113.979C35.1737 114.357 34.6848 114.546 34.068 114.546C33.4075 114.546 32.8837 114.299 32.4967 113.804C32.1097 113.307 31.9163 112.616 31.9163 111.731ZM34.0593 113.931C34.4724 113.931 34.7925 113.801 35.0195 113.542C35.2493 113.28 35.3643 112.904 35.3643 112.412C35.3643 111.99 35.258 111.658 35.0456 111.417C34.8332 111.175 34.5161 111.055 34.0942 111.055C33.8323 111.055 33.5922 111.108 33.374 111.216C33.1558 111.324 32.9812 111.472 32.8503 111.661C32.7222 111.85 32.6582 112.047 32.6582 112.25C32.6582 112.55 32.7164 112.829 32.8328 113.088C32.9492 113.347 33.1136 113.552 33.326 113.704C33.5413 113.855 33.7857 113.931 34.0593 113.931ZM42.0071 114.459H41.1342L38.8079 111.364L38.1401 111.958V114.459H37.3981V108.078H38.1401V111.242L41.0338 108.078H41.9111L39.3447 110.849L42.0071 114.459Z" fill="white"/>
<path d="M29.411 69.7659H28.7039V65.218C28.7039 64.8397 28.7156 64.4818 28.7388 64.1443C28.6777 64.2054 28.6094 64.2694 28.5337 64.3364C28.4581 64.4033 28.1118 64.687 27.495 65.1875L27.1109 64.6899L28.8 63.3849H29.411V69.7659ZM36.0713 66.5667C36.0713 67.6694 35.8967 68.4929 35.5476 69.037C35.2013 69.5811 34.6703 69.8532 33.9545 69.8532C33.2678 69.8532 32.7455 69.5753 32.3876 69.0195C32.0297 68.4609 31.8508 67.6432 31.8508 66.5667C31.8508 65.4551 32.0239 64.6302 32.3702 64.0919C32.7164 63.5537 33.2445 63.2845 33.9545 63.2845C34.647 63.2845 35.1722 63.5653 35.5301 64.1269C35.8909 64.6884 36.0713 65.5017 36.0713 66.5667ZM32.584 66.5667C32.584 67.4948 32.6931 68.1714 32.9114 68.5962C33.1296 69.0181 33.4773 69.229 33.9545 69.229C34.4375 69.229 34.7867 69.0152 35.002 68.5874C35.2202 68.1568 35.3293 67.4832 35.3293 66.5667C35.3293 65.6501 35.2202 64.9794 35.002 64.5546C34.7867 64.1269 34.4375 63.913 33.9545 63.913C33.4773 63.913 33.1296 64.124 32.9114 64.5459C32.6931 64.9649 32.584 65.6385 32.584 66.5667ZM42.0071 69.7659H41.1342L38.8079 66.6714L38.1401 67.265V69.7659H37.3981V63.3849H38.1401V66.5492L41.0338 63.3849H41.9111L39.3447 66.1564L42.0071 69.7659Z" fill="white"/>
<path d="M36.3375 135.339H35.3904V136.805H34.6965V135.339H31.5933V134.706L34.6223 130.39H35.3904V134.68H36.3375V135.339ZM34.6965 134.68V132.559C34.6965 132.143 34.711 131.673 34.7401 131.149H34.7052C34.5655 131.428 34.4346 131.66 34.3124 131.843L32.3178 134.68H34.6965ZM42.0071 136.805H41.1342L38.8079 133.711L38.1401 134.305V136.805H37.3981V130.424H38.1401V133.589L41.0338 130.424H41.9111L39.3447 133.196L42.0071 136.805Z" fill="white"/>
</g>
<path d="M123.353 129.593C123.353 128.112 124.553 126.911 126.034 126.911C127.515 126.911 128.716 128.112 128.716 129.593V181.437H123.353V129.593Z" fill="#8476AA"/>
<path d="M130.673 144.778C130.673 143.397 131.793 142.278 133.173 142.278C134.554 142.278 135.673 143.397 135.673 144.778V181.278H130.673V144.778Z" fill="#99EFD0"/>
<path d="M91.1738 114.398C91.1738 112.917 92.3744 111.716 93.8554 111.716C95.3364 111.716 96.537 112.917 96.537 114.398V181.437H91.1738V114.398Z" fill="#8476AA"/>
<path d="M98.6733 134.778C98.6733 133.397 99.7926 132.278 101.173 132.278C102.554 132.278 103.673 133.397 103.673 134.778V181.278H98.6733V134.778Z" fill="#99EFD0"/>
<path d="M187.711 76.8553C187.711 75.3743 188.911 74.1737 190.392 74.1737C191.873 74.1737 193.074 75.3743 193.074 76.8553V181.437H187.711V76.8553Z" fill="#8476AA"/>
<path d="M194.673 107.778C194.673 106.397 195.793 105.278 197.173 105.278C198.554 105.278 199.673 106.397 199.673 107.778V181.278H194.673V107.778Z" fill="#99EFD0"/>
<path d="M58.9948 150.152C58.9948 148.671 60.1954 147.47 61.6764 147.47C63.1574 147.47 64.358 148.671 64.358 150.152V181.437H58.9948V150.152Z" fill="#8476AA"/>
<path d="M65.6733 160.278C65.6733 158.621 67.0165 157.278 68.6733 157.278C70.3302 157.278 71.6733 158.621 71.6733 160.278V181.278H65.6733V160.278Z" fill="#99EFD0"/>
<path d="M155.532 88.4755C155.532 86.9945 156.732 85.7939 158.213 85.7939C159.694 85.7939 160.895 86.9945 160.895 88.4755V181.437H155.532V88.4755Z" fill="#8476AA"/>
<path d="M162.673 115.778C162.673 114.397 163.793 113.278 165.173 113.278C166.554 113.278 167.673 114.397 167.673 115.778V181.278H162.673V115.778Z" fill="#99EFD0"/>
</g>
<defs>
<filter id="filter0_d_2:554" x="-60.7825" y="-38.4527" width="339.667" height="332.516" filterUnits="userSpaceOnUse" color-interpolation-filters="sRGB">
<feFlood flood-opacity="0" result="BackgroundImageFix"/>
<feColorMatrix in="SourceAlpha" type="matrix" values="0 0 0 0 0 0 0 0 0 0 0 0 0 0 0 0 0 0 127 0" result="hardAlpha"/>
<feOffset dx="-7.15089" dy="14.3018"/>
<feGaussianBlur stdDeviation="26.8158"/>
<feColorMatrix type="matrix" values="0 0 0 0 0.322856 0 0 0 0 0.446289 0 0 0 0 0.545035 0 0 0 0.24 0"/>
<feBlend mode="normal" in2="BackgroundImageFix" result="effect1_dropShadow_2:554"/>
<feBlend mode="normal" in="SourceGraphic" in2="effect1_dropShadow_2:554" result="shape"/>
</filter>
<clipPath id="clip0_2:554">
<rect width="232.404" height="225.253" fill="white" transform="translate(0 0.877197)"/>
</clipPath>
<clipPath id="clip1_2:554">
<rect width="146.593" height="12.5141" fill="white" transform="translate(52.7378 185.012)"/>
</clipPath>
<clipPath id="clip2_2:554">
<rect width="16.0895" height="124.247" fill="white" transform="translate(25.922 60.7659)"/>
</clipPath>
</defs>
</svg>
